<svg width="36" height="36" viewBox="0 0 36 36" fill="none" xmlns="http://www.w3.org/2000/svg">
<circle cx="18" cy="18" r="18" fill="#D2EACF"/>
<g clip-path="url(#clip0_16_33)">
<path d="M26.52 21.21L24.72 19.4V14.94C24.744 13.2838 24.1679 11.6749 23.0981 10.4104C22.0284 9.14578 20.5372 8.31095 18.9 8.06002C17.9498 7.93488 16.9839 8.01383 16.0666 8.29159C15.1494 8.56935 14.3019 9.03954 13.5807 9.67078C12.8596 10.302 12.2814 11.0798 11.8846 11.9522C11.4879 12.8246 11.2818 13.7716 11.28 14.73V19.4L9.48001 21.21C9.25392 21.4399 9.1006 21.7313 9.03921 22.0478C8.97783 22.3643 9.01111 22.6919 9.13489 22.9897C9.25867 23.2874 9.46746 23.542 9.73516 23.7217C10.0029 23.9014 10.3176 23.9982 10.64 24H14V24.34C14.0467 25.3552 14.494 26.3105 15.2437 26.9965C15.9935 27.6826 16.9847 28.0434 18 28C19.0154 28.0434 20.0065 27.6826 20.7563 26.9965C21.5061 26.3105 21.9533 25.3552 22 24.34V24H25.36C25.6824 23.9982 25.9972 23.9014 26.2649 23.7217C26.5326 23.542 26.7414 23.2874 26.8651 22.9897C26.9889 22.6919 27.0222 22.3643 26.9608 22.0478C26.8994 21.7313 26.7461 21.4399 26.52 21.21ZM20 24.34C19.9446 24.821 19.7057 25.2621 19.3331 25.5713C18.9605 25.8805 18.483 26.0341 18 26C17.517 26.0341 17.0395 25.8805 16.6669 25.5713C16.2944 25.2621 16.0555 24.821 16 24.34V24H20V24.34ZM11.51 22L12.69 20.82C12.8772 20.634 13.0257 20.4127 13.1269 20.169C13.2282 19.9253 13.2802 19.6639 13.28 19.4V14.73C13.2806 14.0554 13.4254 13.3887 13.7048 12.7747C13.9842 12.1607 14.3917 11.6136 14.9 11.17C15.4014 10.7157 15.9956 10.3758 16.6414 10.1737C17.2871 9.97173 17.9691 9.91245 18.64 10C19.7965 10.1878 20.8462 10.787 21.5959 11.6874C22.3456 12.5878 22.7448 13.7287 22.72 14.9V19.4C22.7185 19.6632 22.7689 19.9242 22.8685 20.1678C22.968 20.4115 23.1146 20.6331 23.3 20.82L24.49 22H11.51Z" fill="black"/>
</g>
<defs>
<clipPath id="clip0_16_33">
<rect width="24" height="24" fill="white" transform="translate(6 6)"/>
</clipPath>
</defs>
</svg>
