<svg width="36" height="36" viewBox="0 0 36 36" fill="none" xmlns="http://www.w3.org/2000/svg">
<circle cx="18" cy="18" r="18" fill="#D2EACF"/>
<g clip-path="url(#clip0_16_32)">
<path d="M18 17C18.7911 17 19.5645 16.7654 20.2223 16.3259C20.8801 15.8864 21.3928 15.2616 21.6955 14.5307C21.9983 13.7998 22.0775 12.9956 21.9231 12.2196C21.7688 11.4437 21.3878 10.731 20.8284 10.1716C20.269 9.61216 19.5563 9.2312 18.7804 9.07686C18.0044 8.92252 17.2002 9.00173 16.4693 9.30448C15.7384 9.60723 15.1136 10.1199 14.6741 10.7777C14.2346 11.4355 14 12.2089 14 13C14 14.0609 14.4214 15.0783 15.1716 15.8284C15.9217 16.5786 16.9391 17 18 17ZM18 11C18.3956 11 18.7822 11.1173 19.1111 11.3371C19.44 11.5568 19.6964 11.8692 19.8478 12.2346C19.9991 12.6001 20.0387 13.0022 19.9616 13.3902C19.8844 13.7781 19.6939 14.1345 19.4142 14.4142C19.1345 14.6939 18.7781 14.8844 18.3902 14.9616C18.0022 15.0387 17.6001 14.9991 17.2346 14.8478C16.8692 14.6964 16.5568 14.44 16.3371 14.1111C16.1173 13.7822 16 13.3956 16 13C16 12.4696 16.2107 11.9609 16.5858 11.5858C16.9609 11.2107 17.4696 11 18 11Z" fill="black"/>
<path d="M18 19C16.1435 19 14.363 19.7375 13.0503 21.0503C11.7375 22.363 11 24.1435 11 26C11 26.2652 11.1054 26.5196 11.2929 26.7071C11.4804 26.8946 11.7348 27 12 27C12.2652 27 12.5196 26.8946 12.7071 26.7071C12.8946 26.5196 13 26.2652 13 26C13 24.6739 13.5268 23.4021 14.4645 22.4645C15.4021 21.5268 16.6739 21 18 21C19.3261 21 20.5979 21.5268 21.5355 22.4645C22.4732 23.4021 23 24.6739 23 26C23 26.2652 23.1054 26.5196 23.2929 26.7071C23.4804 26.8946 23.7348 27 24 27C24.2652 27 24.5196 26.8946 24.7071 26.7071C24.8946 26.5196 25 26.2652 25 26C25 24.1435 24.2625 22.363 22.9497 21.0503C21.637 19.7375 19.8565 19 18 19Z" fill="black"/>
</g>
<defs>
<clipPath id="clip0_16_32">
<rect width="24" height="24" fill="white" transform="translate(6 6)"/>
</clipPath>
</defs>
</svg>
